<svg xmlns="http://www.w3.org/2000/svg" width="24px" height="24px">
    <path fill-rule="evenodd" fill="rgb(121, 134, 152)"
          d="M11.947,23.999 C5.360,23.999 -0.000,18.548 -0.000,11.960 C-0.000,5.372 5.360,0.012 11.947,0.012 C18.535,0.012 23.988,5.372 23.988,11.960 C23.988,18.548 18.535,23.999 11.947,23.999 ZM12.041,4.229 C7.778,4.229 4.310,7.697 4.310,11.960 C4.310,16.221 7.778,19.690 12.041,19.690 C13.758,19.690 15.384,19.139 16.742,18.096 C17.476,17.533 16.626,16.416 15.885,16.982 C14.776,17.834 13.446,18.284 12.041,18.284 C8.554,18.284 5.716,15.447 5.716,11.960 C5.716,8.472 8.554,5.635 12.041,5.635 C15.254,5.635 18.366,7.958 18.366,12.662 C18.366,13.436 17.735,14.068 16.960,14.068 C16.186,14.068 15.555,13.436 15.555,12.662 C15.555,11.098 15.555,10.711 15.555,9.148 C15.555,8.760 15.241,8.445 14.852,8.445 C14.463,8.445 14.149,8.760 14.149,9.148 L14.149,9.166 C13.560,8.720 12.834,8.445 12.041,8.445 C10.104,8.445 8.527,10.022 8.527,11.960 C8.527,13.896 10.104,15.473 12.041,15.473 C13.088,15.473 14.019,15.003 14.664,14.273 C15.173,14.997 16.010,15.473 16.960,15.473 C18.510,15.473 19.771,14.212 19.771,12.662 C19.771,7.093 15.925,4.229 12.041,4.229 ZM12.041,14.068 C10.878,14.068 9.933,13.121 9.933,11.960 C9.933,10.796 10.878,9.851 12.041,9.851 C13.204,9.851 14.149,10.796 14.149,11.960 C14.149,13.121 13.204,14.068 12.041,14.068 Z"/>
</svg>