<svg xmlns="http://www.w3.org/2000/svg" width="25px" height="25px">
    <path fill-rule="evenodd" fill="rgb(121, 134, 152)"
          d="M24.488,12.659 C24.319,12.836 24.083,12.925 23.787,12.925 L23.757,12.925 C22.811,12.906 22.798,12.026 22.790,11.603 C22.789,11.484 22.787,11.372 22.775,11.280 C22.091,5.861 19.618,3.313 14.244,2.486 C14.167,2.474 14.075,2.468 13.978,2.460 C13.577,2.431 12.742,2.370 12.791,1.506 C12.813,1.134 12.980,0.506 13.862,0.506 C13.961,0.506 14.061,0.514 14.148,0.519 C14.220,0.525 14.287,0.529 14.342,0.529 C14.377,0.529 14.398,0.527 14.408,0.526 C14.430,0.523 14.452,0.521 14.475,0.522 C20.010,0.709 24.806,5.734 24.738,11.277 C24.737,11.351 24.741,11.436 24.745,11.526 C24.762,11.894 24.783,12.351 24.488,12.659 ZM14.785,6.863 C15.613,6.842 16.523,7.274 17.278,8.042 C18.030,8.807 18.472,9.767 18.463,10.612 C18.490,11.422 18.194,11.870 17.585,11.943 C17.547,11.948 17.508,11.949 17.472,11.949 L17.471,11.949 C16.965,11.949 16.570,11.540 16.512,10.955 C16.386,9.698 15.758,9.021 14.535,8.824 C14.197,8.770 13.827,8.671 13.633,8.347 C13.501,8.127 13.488,7.858 13.595,7.550 C13.823,6.887 14.472,6.872 14.785,6.863 ZM13.191,4.469 C13.244,4.157 13.444,3.632 14.190,3.632 C14.378,3.632 14.565,3.663 14.745,3.692 C14.828,3.707 14.907,3.720 14.980,3.728 C18.623,4.166 21.563,7.331 21.534,10.784 C21.534,10.801 21.533,10.816 21.530,10.832 C21.522,10.895 21.525,10.990 21.529,11.090 C21.541,11.445 21.566,12.183 20.758,12.306 C20.677,12.317 20.599,12.324 20.527,12.324 C19.660,12.324 19.611,11.517 19.587,11.128 C19.581,11.024 19.575,10.926 19.562,10.847 C19.023,7.601 17.920,6.450 14.647,5.719 C14.566,5.700 14.470,5.688 14.368,5.673 C14.018,5.626 13.583,5.565 13.336,5.229 C13.189,5.030 13.140,4.773 13.191,4.469 ZM13.674,17.494 C13.984,17.635 14.268,17.706 14.518,17.706 C14.939,17.706 15.281,17.498 15.563,17.071 C16.200,16.106 16.972,15.618 17.857,15.618 C18.514,15.618 19.209,15.881 19.982,16.425 C20.107,16.513 20.233,16.600 20.357,16.688 C20.962,17.109 21.586,17.544 22.173,18.016 C22.284,18.105 22.402,18.196 22.516,18.283 C23.381,18.944 24.457,19.767 23.868,21.432 C23.195,23.332 21.004,24.999 19.180,24.999 L19.150,24.999 C19.117,24.999 19.085,24.995 19.053,24.986 C18.996,24.971 18.917,24.953 18.825,24.932 C18.558,24.872 18.191,24.791 17.842,24.640 C13.963,22.969 10.616,20.746 7.893,18.031 C5.110,15.259 2.904,11.898 1.335,8.045 C0.792,6.712 0.769,5.431 1.269,4.339 C1.787,3.210 2.825,2.355 4.271,1.869 C4.845,1.676 5.405,1.678 5.937,1.874 C7.196,2.336 10.181,6.410 10.255,7.763 C10.320,8.955 9.403,9.577 8.911,9.913 C8.044,10.502 7.884,11.226 8.376,12.333 C9.396,14.625 11.179,16.362 13.674,17.494 Z"/>
</svg>