<svg xmlns="http://www.w3.org/2000/svg" width="24px" height="24px">
    <path fill-rule="evenodd" fill="rgb(121, 134, 152)"
          d="M23.982,23.999 L23.982,24.000 L19.019,24.000 L19.019,16.203 C19.019,14.345 18.981,11.962 16.434,11.962 C13.848,11.962 13.452,13.982 13.452,16.069 L13.452,23.999 L8.485,23.999 L8.485,7.984 L13.255,7.984 L13.255,10.168 L13.325,10.168 C13.988,8.910 15.611,7.582 18.030,7.582 C23.061,7.582 23.988,10.898 23.988,15.202 L23.988,23.999 L23.982,23.999 ZM2.880,5.800 C1.290,5.800 0.000,4.484 0.000,2.893 C0.000,1.302 1.290,0.013 2.880,0.013 C4.470,0.013 5.760,1.302 5.761,2.893 C5.761,4.484 4.471,5.800 2.880,5.800 ZM5.369,24.000 L0.396,24.000 L0.396,7.985 L5.369,7.985 L5.369,24.000 Z"/>
</svg>